<svg xmlns="http://www.w3.org/2000/svg" width="170" height="49" viewBox="0 0 170 49">
    <g fill="none" fill-rule="evenodd">
        <g>
            <g fill="#E6752B">
                <path d="M2.073 7.307h5.911V0h2.075v6.872C10.059 8.563 9.522 9 7.847 9H2.212C.536 9 0 8.563 0 6.872V0h2.073v7.307M14.294 0h1.43l6.332 5.302c.367.296.716.61 1.03.976-.053-.75-.087-1.273-.087-1.552V0h1.883v9h-1.43L16.84 3.436c-.26-.227-.505-.453-.75-.734.07.698.088 1.17.088 1.432V9h-1.884V0M29.118 9L31.235 9 31.235 0 29.118 0zM33.882 0L36.173 0 39.666 6.505 42.994 0 45 0 40.252 9 38.864 9 33.882 0M47.647 0L56.563 0 56.563 1.535 49.673 1.535 49.673 3.54 53.691 3.54 53.691 5.075 49.673 5.075 49.673 7.307 56.647 7.307 56.647 9 47.647 9 47.647 0M62.395 1.552v2.512h4.672c.64 0 .933-.122.933-.716V2.267c0-.594-.293-.715-.933-.715h-4.672zM60.353 0H68c1.368 0 2.008.488 2.008 1.743v2.11c0 1.256-.64 1.745-2.008 1.745h-1.176L70.94 9h-2.975l-3.6-3.402h-1.971V9h-2.042V0zM75.784 1.569v1.936H81.4c1.69 0 2.248.437 2.248 2.128v1.239C83.647 8.563 83.09 9 81.4 9h-5.564c-1.69 0-2.247-.437-2.247-2.128v-.245l1.847-.383v1.063h6.363V5.25h-5.614c-1.69 0-2.232-.435-2.232-2.128v-.993C73.952.436 74.495 0 76.184 0h5.11c1.605 0 2.232.418 2.232 1.97v.192l-1.848.436v-1.03h-5.894M87.882 9L90 9 90 0 87.882 0zM98.682 9L96.655 9 96.655 1.605 92.647 1.605 92.647 0 102.706 0 102.706 1.605 98.682 1.605 98.682 9M107.778 4.971L103.235 0 105.948 0 108.949 3.452 111.966 0 114.353 0 109.83 4.918 109.83 9 107.778 9 107.778 4.971" transform="translate(0 .08) translate(55 23)"/>
            </g>
            <g fill="#767173">
                <path d="M7.903 5.406L5.985 1.743l-1.99 3.663h3.908zM5.05 0h2.007l5.12 9H9.84L8.768 7.029H3.113L2.076 9H0l5.05-9zM18.211 9L16.182 9 16.182 1.605 12.176 1.605 12.176 0 22.235 0 22.235 1.605 18.211 1.605 18.211 9M24.353 0L26.416 0 26.416 3.488 32.86 3.488 32.86 0 34.941 0 34.941 9 32.86 9 32.86 5.127 26.416 5.127 26.416 9 24.353 9 24.353 0M39.706 0L41.711 0 41.711 7.307 48.176 7.307 48.176 9 39.706 9 39.706 0M51.353 0L60.267 0 60.267 1.535 53.38 1.535 53.38 3.54 57.397 3.54 57.397 5.075 53.38 5.075 53.38 7.307 60.353 7.307 60.353 9 51.353 9 51.353 0M67.976 9L65.949 9 65.949 1.605 61.941 1.605 61.941 0 72 0 72 1.605 67.976 1.605 67.976 9M74.647 0L83.561 0 83.561 1.535 76.674 1.535 76.674 3.54 80.691 3.54 80.691 5.075 76.674 5.075 76.674 7.307 83.647 7.307 83.647 9 74.647 9 74.647 0" transform="translate(0 .08) translate(55 23) translate(0 16)"/>
            </g>
        </g>
        <path fill="#E6752B" d="M41.692 48V12.186c0-2.826-1.695-4.22-4.274-4.22h-11.32c-2.251 0-3.79 1.34-3.79 4.22v22.268L14 34.535v-23.98C14 4.557 17.845 0 24.501 0h14.422C45.633 0 50 4.152 50 10.555V48h-8.308z" transform="translate(0 .08)"/>
        <path fill="#767173" d="M8.308 0v35.814c0 2.826 1.695 4.22 4.274 4.22h11.32c2.251 0 3.79-1.34 3.79-4.22V13.546L36 13.465v23.98C36 43.443 32.155 48 25.499 48H11.077C4.367 48 0 43.848 0 37.445V0h8.308z" transform="translate(0 .08)"/>
        <g>
            <g>
                <g fill="#E6752B">
                    <path d="M2.073 7.307h5.911V0h2.075v6.872C10.059 8.563 9.522 9 7.847 9H2.212C.536 9 0 8.563 0 6.872V0h2.073v7.307M14.294 0h1.43l6.332 5.302c.367.296.716.61 1.03.976-.053-.75-.087-1.273-.087-1.552V0h1.883v9h-1.43L16.84 3.436c-.26-.227-.505-.453-.75-.734.07.698.088 1.17.088 1.432V9h-1.884V0M29.118 9L31.235 9 31.235 0 29.118 0zM33.882 0L36.173 0 39.666 6.505 42.994 0 45 0 40.252 9 38.864 9 33.882 0M47.647 0L56.563 0 56.563 1.535 49.673 1.535 49.673 3.54 53.691 3.54 53.691 5.075 49.673 5.075 49.673 7.307 56.647 7.307 56.647 9 47.647 9 47.647 0M62.395 1.552v2.512h4.672c.64 0 .933-.122.933-.716V2.267c0-.594-.293-.715-.933-.715h-4.672zM60.353 0H68c1.368 0 2.008.488 2.008 1.743v2.11c0 1.256-.64 1.745-2.008 1.745h-1.176L70.94 9h-2.975l-3.6-3.402h-1.971V9h-2.042V0zM75.784 1.569v1.936H81.4c1.69 0 2.248.437 2.248 2.128v1.239C83.647 8.563 83.09 9 81.4 9h-5.564c-1.69 0-2.247-.437-2.247-2.128v-.245l1.847-.383v1.063h6.363V5.25h-5.614c-1.69 0-2.232-.435-2.232-2.128v-.993C73.952.436 74.495 0 76.184 0h5.11c1.605 0 2.232.418 2.232 1.97v.192l-1.848.436v-1.03h-5.894M87.882 9L90 9 90 0 87.882 0zM98.682 9L96.655 9 96.655 1.605 92.647 1.605 92.647 0 102.706 0 102.706 1.605 98.682 1.605 98.682 9M107.778 4.971L103.235 0 105.948 0 108.949 3.452 111.966 0 114.353 0 109.83 4.918 109.83 9 107.778 9 107.778 4.971" transform="translate(0 .08) translate(55 23)"/>
                </g>
                <g fill="#767173">
                    <path d="M7.903 5.406L5.985 1.743l-1.99 3.663h3.908zM5.05 0h2.007l5.12 9H9.84L8.768 7.029H3.113L2.076 9H0l5.05-9zM18.211 9L16.182 9 16.182 1.605 12.176 1.605 12.176 0 22.235 0 22.235 1.605 18.211 1.605 18.211 9M24.353 0L26.416 0 26.416 3.488 32.86 3.488 32.86 0 34.941 0 34.941 9 32.86 9 32.86 5.127 26.416 5.127 26.416 9 24.353 9 24.353 0M39.706 0L41.711 0 41.711 7.307 48.176 7.307 48.176 9 39.706 9 39.706 0M51.353 0L60.267 0 60.267 1.535 53.38 1.535 53.38 3.54 57.397 3.54 57.397 5.075 53.38 5.075 53.38 7.307 60.353 7.307 60.353 9 51.353 9 51.353 0M67.976 9L65.949 9 65.949 1.605 61.941 1.605 61.941 0 72 0 72 1.605 67.976 1.605 67.976 9M74.647 0L83.561 0 83.561 1.535 76.674 1.535 76.674 3.54 80.691 3.54 80.691 5.075 76.674 5.075 76.674 7.307 83.647 7.307 83.647 9 74.647 9 74.647 0" transform="translate(0 .08) translate(55 23) translate(0 16)"/>
                </g>
            </g>
            <path fill="#E6752B" d="M41.692 48V12.186c0-2.826-1.695-4.22-4.274-4.22h-11.32c-2.251 0-3.79 1.34-3.79 4.22v22.268L14 34.535v-23.98C14 4.557 17.845 0 24.501 0h14.422C45.633 0 50 4.152 50 10.555V48h-8.308z" transform="translate(0 .08)"/>
            <path fill="#767173" d="M8.308 0v35.814c0 2.826 1.695 4.22 4.274 4.22h11.32c2.251 0 3.79-1.34 3.79-4.22V13.546L36 13.465v23.98C36 43.443 32.155 48 25.499 48H11.077C4.367 48 0 43.848 0 37.445V0h8.308z" transform="translate(0 .08)"/>
        </g>
    </g>
</svg>
